<?xml version="1.0" encoding="UTF-8"?>
<svg width="42px" height="42px" viewBox="0 0 42 42" version="1.1" xmlns="http://www.w3.org/2000/svg" xmlns:xlink="http://www.w3.org/1999/xlink">
    <!-- Generator: Sketch 55.2 (78181) - https://sketchapp.com -->
    <title>编组 29备份 3</title>
    <desc>Created with Sketch.</desc>
    <g id="页面1" stroke="none" stroke-width="1" fill="none" fill-rule="evenodd">
        <g id="编组-29备份-3" transform="translate(1.000000, 1.000000)">
            <g id="编组-25备份-2" stroke="#000000" stroke-width="1.33333333">
                <circle id="椭圆形备份-13" cx="20" cy="20" r="20"></circle>
            </g>
            <path d="M18.2151214,23.2233451 C18.2151214,24.2010233 17.9514606,25.0545988 17.4241313,25.7840971 C16.896802,26.5135955 16.1811515,27.0701117 15.2771583,27.4536624 C14.3731652,27.837213 13.3863208,28.0289855 12.3165956,28.0289855 C10.9304728,28.0289855 9.76659904,27.7544877 8.82493951,27.2054837 C7.88327998,26.6564798 7.1638629,26.0811624 6.66666667,25.4795143 L8.31644591,23.5843322 C8.8889749,24.1859803 9.51799403,24.6522506 10.2035222,24.9831571 C10.8890503,25.3140635 11.5858679,25.4795143 12.2939959,25.4795143 C13.06239,25.4795143 13.729075,25.2651804 14.2940707,24.8365061 C14.8590664,24.4078318 15.14156,23.7949119 15.14156,22.9977282 C15.14156,22.1855032 14.8515332,21.5688231 14.271471,21.1476694 C13.6914087,20.7265157 12.9719916,20.515942 12.1131981,20.515942 L10.37302,20.515942 L10.37302,18.1469644 L12.1583976,18.1469644 C12.9418583,18.1469644 13.5784106,17.9514316 14.0680735,17.5603604 C14.5577365,17.1692891 14.8025643,16.6278139 14.8025643,15.9359185 C14.8025643,15.2590644 14.5426702,14.7401506 14.0228741,14.3791618 C13.503078,14.0181729 12.8363931,13.8376812 12.0227993,13.8376812 C11.3146713,13.8376812 10.6705859,13.9843307 10.0905236,14.2776342 C9.51046132,14.5709376 9.0019728,14.9432018 8.56504278,15.3944379 L7.16386041,13.3864473 C7.66105664,12.8900876 8.35410766,12.4238173 9.24303425,11.9876224 C10.1319608,11.5514275 11.1866037,11.3333333 12.4069944,11.3333333 C13.3712538,11.3333333 14.2639336,11.4950238 15.0850607,11.8184097 C15.9061878,12.1417956 16.5653396,12.6155864 17.0625359,13.2397963 C17.5597321,13.8640063 17.8083265,14.6198154 17.8083265,15.5072464 C17.8083265,16.3194714 17.6199974,17.0000756 17.2433336,17.5490795 C16.8666698,18.0980834 16.4523458,18.5004296 16.0003492,18.75613 C15.5483527,19.0118305 15.2018271,19.1622403 14.9607623,19.2073639 C15.3223596,19.2825699 15.7479833,19.4480207 16.2376462,19.7037211 C16.7273092,19.9594216 17.179299,20.3805689 17.5936292,20.9671759 C18.0079594,21.5537828 18.2151214,22.3058317 18.2151214,23.2233451 Z M32.9275362,19.6811594 C32.9275362,21.3056094 32.6940082,22.745783 32.226945,24.0017235 C31.7598819,25.2576639 31.0668309,26.242848 30.1477712,26.9573051 C29.2287115,27.6717623 28.1138034,28.0289855 26.8030133,28.0289855 C25.5072898,28.0289855 24.3999148,27.6717623 23.4808551,26.9573051 C22.5617954,26.242848 21.8687444,25.2576639 21.4016813,24.0017235 C20.9346181,22.745783 20.7010901,21.3056094 20.7010901,19.6811594 C20.7010901,18.0567095 20.9346181,16.6127756 21.4016813,15.3493145 C21.8687444,14.0858535 22.5617954,13.1006694 23.4808551,12.3937329 C24.3999148,11.6867963 25.5072898,11.3333333 26.8030133,11.3333333 C28.1138034,11.3333333 29.2287115,11.6867963 30.1477712,12.3937329 C31.0668309,13.1006694 31.7598819,14.0858535 32.226945,15.3493145 C32.6940082,16.6127756 32.9275362,18.0567095 32.9275362,19.6811594 Z M29.7861758,19.6811594 C29.7861758,17.9815034 29.5375814,16.5789323 29.0403851,15.4734038 C28.5431889,14.3678754 27.7974058,13.8151195 26.8030133,13.8151195 C25.8236874,13.8151195 25.0854374,14.3678754 24.5882412,15.4734038 C24.0910449,16.5789323 23.8424505,17.9815034 23.8424505,19.6811594 C23.8424505,21.3657742 24.0910449,22.7645851 24.5882412,23.8776342 C25.0854374,24.9906832 25.8236874,25.5471994 26.8030133,25.5471994 C27.7974058,25.5471994 28.5431889,24.9944434 29.0403851,23.888915 C29.5375814,22.7833866 29.7861758,21.3808154 29.7861758,19.6811594 Z" id="30备份-3" fill="#000000" fill-rule="nonzero"></path>
        </g>
    </g>
</svg>