<?xml version="1.0" encoding="UTF-8"?>
<svg width="42px" height="42px" viewBox="0 0 42 42" version="1.1" xmlns="http://www.w3.org/2000/svg" xmlns:xlink="http://www.w3.org/1999/xlink">
    <!-- Generator: Sketch 55.2 (78181) - https://sketchapp.com -->
    <title>编组 30备份 3</title>
    <desc>Created with Sketch.</desc>
    <g id="页面1" stroke="none" stroke-width="1" fill="none" fill-rule="evenodd">
        <g id="编组-30备份-3" transform="translate(1.000000, 1.000000)">
            <g id="编组-25备份" stroke="#000000" stroke-width="1.33333333">
                <circle id="椭圆形备份-13" cx="20" cy="20" r="20"></circle>
            </g>
            <path d="M11.3306582,15.5710462 C11.1806278,15.7066562 10.963087,15.8422642 10.6780292,15.9778743 C10.3929715,16.1134843 10.2204391,16.1963558 10.1604269,16.2264914 C9.3952719,16.4977115 8.90017901,16.6634546 8.67513341,16.7237257 L8,14.508773 C8.25505168,14.4786374 8.61136853,14.3693976 9.06896124,14.1810504 C9.52655395,13.9927031 9.92787924,13.8005918 10.2729492,13.6047106 C10.6630282,13.3786939 11.0080929,13.1263124 11.3081537,12.8475584 C11.6082145,12.5688045 11.8032511,12.2862878 11.8932694,12 L14.4587763,12 L14.4587763,28.273122 L11.3306582,28.273122 L11.3306582,15.5710462 Z M31.6521739,23.0069589 C31.6521739,24.167178 31.3671204,25.1616367 30.7970049,25.9903646 C30.2268894,26.8190925 29.4692473,27.448163 28.5240558,27.8775947 C27.5788643,28.3070265 26.5661743,28.5217391 25.4859554,28.5217391 C24.1056757,28.5217391 22.9542097,28.2731245 22.0315228,27.7758877 C21.1088358,27.2786509 20.3549444,26.7211514 19.7698258,26.1033724 L21.4126505,24.1822399 C21.8327356,24.6493411 22.3803383,25.0636989 23.0554751,25.4253256 C23.7306119,25.7869524 24.4657498,25.967763 25.2609109,25.967763 C26.2061024,25.967763 26.9937502,25.7116146 27.6238779,25.1993101 C28.2540055,24.6870055 28.5690647,23.9486953 28.5690647,22.9843573 C28.5690647,22.0200194 28.2465041,21.2854761 27.6013734,20.7807054 C26.9562427,20.2759347 26.168595,20.0235532 25.2384065,20.0235532 C24.6532879,20.0235532 24.1431922,20.1214923 23.7081041,20.3173735 C23.2730159,20.5132546 22.9354526,20.7392679 22.695404,20.9954202 L20.782526,20.1817641 L22.1778017,12.0452031 L31.202085,12.0452031 L31.202085,14.5313745 L24.4732553,14.5313745 L23.8206263,18.2606317 C24.3757388,17.959276 25.1633866,17.8086005 26.1835933,17.8086005 C27.1437878,17.8086005 28.040206,17.9969449 28.8728747,18.3736394 C29.7055434,18.750334 30.3769194,19.3304348 30.8870227,20.1139594 C31.3971261,20.897484 31.6521739,21.8618076 31.6521739,23.0069589 Z" id="15备份-3" fill="#000000" fill-rule="nonzero"></path>
        </g>
    </g>
</svg>