<?xml version="1.0" encoding="UTF-8"?>
<svg width="42px" height="42px" viewBox="0 0 42 42" version="1.1" xmlns="http://www.w3.org/2000/svg" xmlns:xlink="http://www.w3.org/1999/xlink">
    <!-- Generator: Sketch 55.2 (78181) - https://sketchapp.com -->
    <title>编组 32</title>
    <desc>Created with Sketch.</desc>
    <g id="页面1" stroke="none" stroke-width="1" fill="none" fill-rule="evenodd">
        <g id="编组-32" transform="translate(1.000000, 1.000000)">
            <g id="编组-28备份-4" stroke="#000000" stroke-width="1.33333333">
                <g id="编组-25备份-3">
                    <circle id="椭圆形备份-13" cx="20" cy="20" r="20"></circle>
                </g>
            </g>
            <path d="M30.1744372,14.6983051 C31.1899467,14.6983051 32,15.5313774 32,16.4728814 L32,20.9322034 L30.6179375,20.9322034 L30.6179375,29.2254237 C30.6179375,30.2558349 29.8517699,31 28.7923748,31 L12.2076252,31 C11.1482301,31 10.3820625,30.2558349 10.3820625,29.2254237 L10.3820625,20.9322034 L9,20.9322034 L9,16.4728814 C9,15.4424702 9.76616765,14.6983051 10.8255628,14.6983051 L12.3038047,14.6983051 C11.953406,14.1520745 11.7641249,13.5307113 11.7641249,12.8484746 C11.7641249,11.2783545 12.9104502,10 14.8335439,10 C16.8807658,10 18.8735835,11.5829621 20.496766,13.7710679 C22.0846925,11.5303214 24.0613612,10 26.1664561,10 C28.1847825,10 29.2358751,11.2172361 29.2358751,12.8484746 C29.2358751,13.4526721 29.0252392,14.1542005 28.6914338,14.6983051 L30.1744372,14.6983051 Z M21.6187064,21.002623 L21.6187064,28.9780717 L28.3784147,28.9780717 L28.3784147,21.002623 L21.6187064,21.002623 Z M23.9431291,14.7445179 C25.5759645,14.7445179 26.8212207,14.0406044 26.8212207,12.9717088 C26.8212207,12.4830292 26.6901968,12.3608225 26.0193878,12.3608225 C24.9042299,12.3608225 23.7237486,13.270478 22.4921335,14.7445179 L23.9431291,14.7445179 Z M21.6187064,16.9358933 L21.6187064,18.6418005 L29.7625872,18.6418005 L29.7625872,16.9358933 L21.6187064,16.9358933 Z M12.4485637,21.002623 L12.4485637,28.9780717 L19.2082721,28.9780717 L19.2082721,21.002623 L12.4485637,21.002623 Z M14.8143193,12.3608225 C14.1379806,12.3608225 14.0057577,12.4832969 14.0057577,12.9717088 C14.0057577,14.0402773 15.2602442,14.7445179 16.9049965,14.7445179 L18.5109679,14.7445179 C17.3040412,13.2925706 15.9429411,12.3608225 14.8143193,12.3608225 Z M19.3812936,16.9358933 L11.2374128,16.9358933 L11.2374128,18.6418005 L19.3812936,18.6418005 L19.3812936,16.9358933 Z" id="形状结合" fill="#000000" fill-rule="nonzero"></path>
        </g>
    </g>
</svg>